<?xml version="1.0" encoding="utf-8"?>
<!-- Generator: Adobe Illustrator 26.3.1, SVG Export Plug-In . SVG Version: 6.00 Build 0)  -->
<svg version="1.1" id="Layer_1" xmlns="http://www.w3.org/2000/svg" xmlns:xlink="http://www.w3.org/1999/xlink" x="0px" y="0px"
	 viewBox="0 0 408.9 408.9" style="enable-background:new 0 0 408.9 408.9;" xml:space="preserve">
<g>
	<path d="M216.5,408.9c-8,0-16,0-24,0c-1-0.2-2-0.6-3.1-0.7c-35.2-2.5-67.8-13.2-97-33c-57.1-38.8-88-92.9-92-161.9
		c-1.9-33.1,4.1-65.1,18.8-94.9C55.4,45.4,114.5,5.5,195.9,0.4c44-2.8,84.9,9,121.6,33.8c48.2,32.6,77.7,77.7,88.3,135.1
		c1.4,7.7,2.1,15.5,3.2,23.2c0,8,0,16,0,24c-0.2,1.1-0.6,2.3-0.7,3.4c-2,28.4-9.4,55.3-23.2,80.2c-31.9,57.9-80.3,93.3-145.4,105.7
		C232,407.2,224.2,407.9,216.5,408.9z M47.6,115.2c14.3,7,28.3,13.9,42.2,20.7c9.5,4.6,11.5,9.5,8,19.6
		c-6.7,19.7-13.4,39.5-20.2,59.2c-0.9,2.7-0.8,5,0.4,7.6c3.5,7.2,6.6,14.5,9.9,21.8c7.2,16,14.4,32,21.6,48
		c2.7,6,6.7,10.6,13.6,11.7c10.7,1.7,18.7-4.1,21.3-15.5c4.6-20.1,9.1-40.2,13.9-60.2c0.8-3.5,2.6-7.1,4.8-9.9
		c16-20.4,32.2-40.7,48.4-60.9c5-6.2,7.1-13.1,5.3-20.8c-1.8-7.9-3.8-15.8-6.2-23.5c-2.3-7.6-7.6-12.7-15.4-14.8
		c-4.5-1.2-9.1-2.1-13.6-3.1c-15.6-3.3-31.2-6.5-46.8-9.9c-8.3-1.8-11.6-6-11.7-14.6c0-3.6,0-7.2,0-10.8c0-5.3,0-10.5,0-16.5
		C90.6,60.1,65.9,83.8,47.6,115.2z M362.9,118.8c-7.4,8.7-14.7,17.2-21.9,25.9c-0.7,0.9-0.7,2.5-0.7,3.8c0,12.9-0.2,25.8,0.1,38.7
		c0.1,5.8-1.5,10.5-4.9,15.2c-10.6,14.8-21,29.8-31.5,44.7c-4.2,6-6.7,12.4-5.9,19.8c2.2,21,4.5,42,6.9,63.1
		c0.1,1.2,0.8,2.6,1.7,3.3c4.6,3.2,9.3,6.1,13.9,9.1C389.3,285.7,402.1,187.9,362.9,118.8z M246.8,379.8
		c-5.6-7.1-10.6-13.9-16.3-20.2c-3.5-3.9-8.4-4.3-13.2-2.2c-3.2,1.4-6.1,3.4-9.3,4.5c-10.5,3.8-12.2,13.7-16.6,22.4
		C210.3,385.7,228.2,384.2,246.8,379.8z"/>
</g>
</svg>
