<?xml version="1.0" encoding="utf-8"?>
<!-- Generator: Adobe Illustrator 26.3.1, SVG Export Plug-In . SVG Version: 6.00 Build 0)  -->
<svg version="1.1" id="Layer_1" xmlns="http://www.w3.org/2000/svg" xmlns:xlink="http://www.w3.org/1999/xlink" x="0px" y="0px"
	 viewBox="0 0 408.9 408.9" style="enable-background:new 0 0 408.9 408.9;" xml:space="preserve">
<style type="text/css">
	.st0{display:none;}
	.st1{display:inline;}
</style>
<g class="st0">
	<path class="st1" d="M216.5,408.9c-8,0-16,0-24,0c-1-0.2-2-0.6-3.1-0.7c-35.2-2.5-67.8-13.2-97-33c-57.1-38.8-88-92.9-92-161.9
		c-1.9-33.1,4.1-65.1,18.8-94.9C55.4,45.4,114.5,5.5,195.9,0.4c44-2.8,84.9,9,121.6,33.8c48.2,32.6,77.7,77.7,88.3,135.1
		c1.4,7.7,2.1,15.5,3.2,23.2c0,8,0,16,0,24c-0.2,1.1-0.6,2.3-0.7,3.4c-2,28.4-9.4,55.3-23.2,80.2c-31.9,57.9-80.3,93.3-145.4,105.7
		C232,407.2,224.2,407.9,216.5,408.9z M47.6,115.2c14.3,7,28.3,13.9,42.2,20.7c9.5,4.6,11.5,9.5,8,19.6
		c-6.7,19.7-13.4,39.5-20.2,59.2c-0.9,2.7-0.8,5,0.4,7.6c3.5,7.2,6.6,14.5,9.9,21.8c7.2,16,14.4,32,21.6,48
		c2.7,6,6.7,10.6,13.6,11.7c10.7,1.7,18.7-4.1,21.3-15.5c4.6-20.1,9.1-40.2,13.9-60.2c0.8-3.5,2.6-7.1,4.8-9.9
		c16-20.4,32.2-40.7,48.4-60.9c5-6.2,7.1-13.1,5.3-20.8c-1.8-7.9-3.8-15.8-6.2-23.5c-2.3-7.6-7.6-12.7-15.4-14.8
		c-4.5-1.2-9.1-2.1-13.6-3.1c-15.6-3.3-31.2-6.5-46.8-9.9c-8.3-1.8-11.6-6-11.7-14.6c0-3.6,0-7.2,0-10.8c0-5.3,0-10.5,0-16.5
		C90.6,60.1,65.9,83.8,47.6,115.2z M362.9,118.8c-7.4,8.7-14.7,17.2-21.9,25.9c-0.7,0.9-0.7,2.5-0.7,3.8c0,12.9-0.2,25.8,0.1,38.7
		c0.1,5.8-1.5,10.5-4.9,15.2c-10.6,14.8-21,29.8-31.5,44.7c-4.2,6-6.7,12.4-5.9,19.8c2.2,21,4.5,42,6.9,63.1
		c0.1,1.2,0.8,2.6,1.7,3.3c4.6,3.2,9.3,6.1,13.9,9.1C389.3,285.7,402.1,187.9,362.9,118.8z M246.8,379.8
		c-5.6-7.1-10.6-13.9-16.3-20.2c-3.5-3.9-8.4-4.3-13.2-2.2c-3.2,1.4-6.1,3.4-9.3,4.5c-10.5,3.8-12.2,13.7-16.6,22.4
		C210.3,385.7,228.2,384.2,246.8,379.8z"/>
</g>
<g class="st0">
	<path class="st1" d="M275.6,0.5c6.8,0.5,13.7,1,20.5,1.6c4.7,0.4,9.4,0.8,14.3,1.3c0,21.7,0,42.9,0,64.7c-1.9,0-3.8,0-5.6,0
		c-13.6,0.2-27.3,0-40.9,0.7c-16.9,0.9-26.3,9.9-27.1,26.8c-0.8,17.7-0.2,35.5-0.2,53.8c23.6,0,47.2,0,71.3,0
		c-3.2,24.5-6.2,48.3-9.4,72.5c-20.8,0-41.3,0-62.1,0c0,62,0,123.6,0,185.5c-25.1,0-49.7,0-74.8,0c0-61.7,0-123.2,0-185.3
		c-21,0-41.6,0-62.4,0c0-24.3,0-48.1,0-72.4c20.6,0,41.1,0,62.3,0c0-2,0-3.6,0-5.1c0.1-19-0.4-37.9,0.4-56.8
		c0.9-22.8,7.7-43.7,23.8-60.8c12.2-13,27.5-20.4,44.8-24c4.6-1,9.3-1.7,14-2.5C254.9,0.5,265.3,0.5,275.6,0.5z"/>
</g>
<g>
	<path d="M144.4,0.5c40.6,0,81.1,0,121.7,0c9.5,0.5,19,1,28.5,1.6c16.6,1,32.9,3.8,48.2,10.7c37.4,16.8,57.2,46.8,63.3,86.6
		c1.1,7,1.6,14.1,2.4,21.2c0,54.6,0,109.2,0,163.8c-0.2,1.8-0.5,3.6-0.7,5.5c-1.1,8.9-1.5,18-3.3,26.8c-8.1,38.9-30,66.5-67.4,81.1
		c-17.9,7-36.8,8.9-55.8,9.1c-43.1,0.4-86.1,0.8-129.2,0.6c-21.2-0.1-42.4-0.2-63.2-5.2C55,393.9,30,374.8,15.1,343.3
		C6,323.9,3.2,303,2.9,281.8c-0.5-44-1-88-0.6-132c0.1-18.5,1.3-37.1,4-55.4c4.2-28.5,17.9-52.1,41.2-69.6
		c20-15,43.1-20.9,67.5-22.7C124.8,1.4,134.6,1,144.4,0.5z M205.8,371.7c0-0.2,0-0.4,0-0.6c10.7,0,21.5,0.3,32.2-0.1
		c23-0.8,46.2-0.6,69-3.4c31.3-3.9,52.6-21.9,60.2-53.1c3.1-12.6,4.2-25.9,4.4-39c0.7-40.9,0.9-81.9,0.6-122.9
		c-0.1-16.5-0.9-33.2-3-49.5c-4.2-32.7-24.6-54.8-56.8-61.3c-13.9-2.8-28.4-3.6-42.6-3.8c-35.6-0.6-71.3-0.5-107-0.4
		c-20.4,0.1-40.8-0.2-61,3.4c-30.9,5.4-52,25-58.3,55.8c-2.7,13.3-3.6,27.1-3.9,40.6c-0.7,32.6-1,65.2-0.6,97.8
		c0.3,23,0.9,46.1,3.1,69c2.2,22.4,12.7,40.8,32.3,53c13.3,8.2,28.2,11.5,43.6,12.1C147.2,370.5,176.5,370.9,205.8,371.7z"/>
	<path d="M101,204c0.1-57.8,47.2-104.7,104.8-104.5c57.9,0.2,104.7,47.2,104.4,104.8c-0.4,57.8-47,104.4-104.6,104.3
		C147.8,308.6,100.9,261.7,101,204z M137.8,204c-0.1,37.5,30.1,67.8,67.6,67.8c37.6,0.1,67.8-29.9,67.9-67.5
		c0.2-37.7-30.1-68-67.8-68C168.1,136.3,137.9,166.5,137.8,204z"/>
	<path d="M314.8,71c13.7,0.2,24.2,11.3,23.8,25c-0.3,13.4-11.3,23.9-24.8,23.7c-13.5-0.2-24.2-11.4-23.9-25.1
		C290.2,81.3,301.3,70.8,314.8,71z"/>
</g>
</svg>
