<svg class="img-fluid" id="outputsvg"
    xmlns="http://www.w3.org/2000/svg" style="transform: matrix(6.98947, 0, 0, 6.98947, -399, 110); transform-origin: 50% 50%; cursor: move; max-height: 368.98px;" width="1296" height="130" viewBox="0 0 12960 1300">
    <g id="l51nCsS3F67ySosC8tSjKex" fill="rgb(0,0,0)" style="transform: none;">
        <g>
            <path id="pUuUJ7JOa" d="M0 650 l0 -650 6480 0 6480 0 0 650 0 650 -6480 0 -6480 0 0 -650z m5258 600 c70 0 152 -30 226 -82 l39 -28 -32 0 c-19 0 -47 12 -72 29 -63 47 -129 64 -218 59 -129 -7 -213 -66 -267 -186 -21 -45 -24 -68 -24 -163 0 -119 10 -152 67 -219 l27 -33 -42 24 c-23 13 -73 52 -110 86 -63 58 -65 62 -39 63 l27 0 0 78 c0 83 17 132 68 196 27 36 31 96 5 96 -15 0 -14 2 4 15 37 26 174 65 229 65 36 0 54 4 55 13 0 10 2 10 6 0 3 -8 23 -13 51 -13z m-4135 -42 c3 -24 9 -63 12 -88 l6 -45 -21 45 c-11 25 -23 53 -26 63 -10 27 -46 32 -239 32 -167 0 -270 -11 -315 -34 -22 -12 -27 -100 -29 -481 -1 -328 11 -578 30 -613 8 -16 0 -17 -113 -16 -68 1 -115 3 -105 6 20 5 18 -6 27 123 l7 105 1 -112 2 -113 40 0 40 0 0 580 0 580 -40 0 -40 0 -1 -162 -2 -163 -8 140 c-11 181 -11 183 -52 188 -17 2 160 5 394 5 l426 2 6 -42z m1311 30 c3 -7 7 -42 10 -78 l5 -65 -22 60 -22 60 -159 3 c-155 2 -290 -8 -307 -25 -11 -11 -24 -437 -15 -496 l7 -47 202 2 201 3 12 50 c11 48 12 45 12 -65 0 -108 -1 -112 -12 -70 l-12 45 -201 3 -202 2 -7 -47 c-7 -48 3 -424 12 -448 3 -7 15 -16 27 -19 41 -10 342 -17 391 -9 48 8 49 8 67 63 l18 55 -6 -65 c-3 -36 -8 -68 -10 -72 -2 -5 -165 -8 -361 -7 -223 0 -349 4 -334 9 12 5 23 17 23 27 1 10 5 68 9 128 l7 110 1 -132 2 -133 40 0 40 0 0 580 0 580 -40 0 -40 0 -2 -162 -1 -163 -7 135 c-9 173 -13 188 -53 193 -18 2 138 5 346 5 294 2 378 -1 381 -10z m1320 -4 c3 -9 6 -39 5 -67 0 -54 -2 -53 -30 22 l-12 33 -206 -4 c-113 -3 -218 -10 -232 -16 -26 -10 -27 -14 -34 -124 -3 -62 -5 -183 -3 -268 l3 -155 203 -3 c188 -2 202 -1 202 15 0 10 5 25 10 33 7 10 9 -10 9 -65 -1 -70 -2 -76 -11 -47 l-11 32 -198 0 -199 0 -6 -27 c-11 -43 3 -464 15 -476 16 -16 288 -32 382 -23 l77 7 15 47 c15 43 16 45 16 16 1 -17 -2 -46 -5 -63 l-6 -31 -357 1 c-196 1 -348 3 -339 6 23 6 30 44 38 213 l7 145 1 -177 2 -178 40 0 40 0 0 580 0 580 -40 0 -40 0 -2 -192 -1 -193 -7 139 c-5 76 -11 162 -15 191 -6 53 -7 54 -43 58 -20 2 135 4 344 5 340 2 383 0 388 -14z m2098 4 c49 -28 52 -38 11 -38 -45 0 -96 -26 -176 -88 -59 -46 -59 -46 -54 -92 3 -25 10 -67 16 -95 5 -27 14 -90 19 -139 6 -56 15 -91 23 -97 9 -5 -26 -9 -88 -9 l-102 0 11 33 c12 32 12 32 18 7 5 -20 13 -26 43 -28 32 -3 37 0 43 23 8 31 -2 230 -14 298 -9 47 -8 50 22 78 17 16 50 42 74 57 40 25 43 30 40 65 l-4 37 48 0 c27 0 58 -6 70 -12z m1514 5 l-29 -5 7 -201 c9 -290 40 -657 57 -689 8 -15 3 -31 -20 -71 l-31 -52 0 167 c0 92 -4 200 -9 240 -5 40 -15 134 -21 208 -18 209 -39 383 -47 391 -5 4 -19 9 -33 12 -14 2 16 4 65 4 50 0 77 -2 61 -4z m1413 0 c-23 -4 -28 -11 -37 -61 -32 -168 -72 -692 -72 -949 0 -125 2 -143 18 -152 13 -8 -1 -10 -54 -11 l-72 0 -18 42 c-10 24 -21 50 -25 58 -5 12 0 15 31 12 l37 -4 7 54 c3 29 11 114 16 188 6 74 15 191 21 260 19 244 29 366 35 463 l7 97 -45 0 -45 0 -7 -52 c-3 -29 -7 -82 -8 -118 -1 -45 -4 -29 -7 50 l-6 115 -35 6 c-19 4 37 6 125 6 88 0 148 -2 134 -4z m1161 -13 c125 -32 233 -93 321 -181 42 -42 83 -89 91 -105 8 -16 24 -47 36 -69 36 -69 52 -136 52 -215 0 -258 -211 -508 -492 -581 -101 -26 -267 -25 -367 1 -101 27 -193 73 -273 137 -68 54 -82 73 -52 73 14 0 16 9 12 52 -3 29 -11 54 -17 56 -6 2 -11 12 -11 22 0 10 -4 21 -9 25 -22 13 -44 123 -45 215 -1 82 3 105 28 170 16 41 34 78 39 81 5 4 12 30 15 58 4 48 3 51 -19 51 -22 0 -21 3 16 36 106 96 201 144 360 182 72 18 233 13 315 -8z m1119 13 l-36 -4 -12 -69 c-6 -38 -11 -159 -11 -269 l0 -201 99 0 c88 0 102 3 135 25 43 29 46 30 46 10 0 -10 10 -15 33 -15 38 0 92 52 166 160 40 57 164 224 178 238 7 7 13 33 13 57 0 43 1 45 39 55 21 5 60 13 87 16 l49 6 -40 -27 c-22 -15 -56 -47 -75 -72 -19 -25 -40 -50 -45 -57 -6 -6 -33 -42 -60 -81 -111 -158 -186 -255 -215 -275 -26 -19 -31 -28 -28 -58 3 -31 9 -39 42 -57 53 -28 111 -86 136 -136 75 -156 -67 -359 -284 -405 -56 -12 -509 -19 -464 -7 13 3 18 21 22 76 12 138 13 141 14 34 l2 -108 43 3 42 3 0 575 0 575 -42 3 -43 3 -1 -123 -2 -123 -8 95 c-14 156 -10 144 -49 151 -19 4 42 6 135 6 94 0 154 -2 134 -4z m1835 -9 c3 -9 6 -37 5 -62 l-1 -47 -21 49 -20 48 -206 -4 c-113 -3 -218 -10 -232 -16 l-27 -11 -7 -153 c-3 -84 -5 -205 -3 -268 l3 -115 203 -3 c188 -2 202 -1 202 15 0 10 5 25 10 33 7 10 9 -10 9 -65 -1 -70 -2 -76 -11 -47 l-11 32 -198 0 -199 0 -6 -27 c-11 -41 4 -465 16 -477 15 -15 290 -30 382 -22 l78 8 14 46 c13 43 15 44 15 16 1 -17 -2 -46 -5 -63 l-6 -31 -357 1 c-196 1 -348 3 -339 6 24 6 28 26 37 174 l8 124 2 -147 1 -148 40 0 40 0 0 580 0 580 -40 0 -40 0 -1 -167 -2 -168 -8 115 c-4 63 -10 138 -14 167 -6 51 -7 52 -43 56 -20 2 135 4 344 5 340 2 383 0 388 -14z m-4924 -41 c0 -7 -9 -13 -20 -13 -23 0 -24 4 -9 32 9 17 13 18 20 7 5 -8 9 -20 9 -26z m65 -123 l23 -45 -37 3 c-35 4 -40 1 -61 -35 -34 -57 -109 -187 -157 -271 -13 -23 -53 -93 -89 -154 -35 -61 -64 -113 -64 -115 0 -3 -8 -17 -19 -31 -10 -15 -56 -100 -101 -189 l-83 -163 -111 1 c-61 1 -102 3 -91 6 11 3 30 14 43 26 l22 20 0 -21 c0 -19 5 -22 43 -22 l42 0 100 176 c55 97 111 194 124 217 13 23 49 87 81 142 56 97 76 132 127 223 13 23 53 93 89 154 46 80 64 120 64 147 l0 36 16 -30 c9 -16 26 -50 39 -75z m-2515 -120 c0 -27 -3 -30 -34 -30 -26 0 -39 -7 -59 -32 -14 -18 -75 -89 -136 -158 -109 -122 -112 -126 -109 -167 3 -41 2 -43 -24 -43 -34 0 -59 -34 -99 -140 -21 -52 -17 -198 5 -232 28 -43 78 -61 158 -56 61 3 73 7 94 31 12 15 26 47 29 72 7 43 9 45 41 45 34 0 34 0 34 46 l0 46 -45 -4 c-30 -2 -45 1 -45 8 0 26 -47 98 -87 135 -46 42 -42 49 12 20 112 -60 172 -118 205 -199 26 -64 -27 -159 -114 -205 -49 -25 -148 -27 -210 -4 -91 34 -186 153 -186 234 0 31 2 33 35 33 31 0 35 3 35 25 0 14 5 25 10 25 6 0 10 7 10 15 0 21 94 182 119 205 4 3 19 23 35 45 36 49 302 315 316 315 6 0 10 -13 10 -30z m2605 -40 c9 -16 13 -30 11 -30 -3 0 -12 14 -21 30 -9 17 -13 30 -11 30 3 0 12 -13 21 -30z m962 -292 c-2 -24 -4 -7 -4 37 0 44 2 63 4 43 2 -21 2 -57 0 -80z m-578 -350 c0 -40 -3 -66 -6 -58 -3 8 -19 41 -35 73 l-28 57 35 0 35 0 -1 -72z"></path>
            <path id="pk10SbuQk" d="M9614 1211 c-71 -17 -163 -73 -216 -130 -53 -58 -108 -151 -108 -183 0 -9 -4 -19 -9 -22 -4 -3 -14 -55 -21 -115 -10 -86 -10 -131 -1 -208 19 -157 56 -239 151 -333 79 -79 132 -106 247 -127 213 -40 413 34 519 191 27 40 34 46 34 28 0 -18 5 -22 34 -22 28 0 38 6 55 36 51 86 66 159 66 324 0 100 -5 171 -13 200 -17 58 -52 130 -63 130 -5 0 -9 9 -9 20 0 16 -7 20 -35 20 -31 0 -35 -3 -35 -27 l0 -28 -17 33 c-23 46 -112 134 -168 165 -79 45 -138 57 -264 56 -64 -1 -130 -4 -147 -8z m663 -603 c-2 -29 -3 -8 -3 47 0 55 1 79 3 53 2 -26 2 -71 0 -100z"></path>
            <path id="pFGv5m6D8" d="M11004 665 c-8 -20 2 -513 11 -549 l8 -29 91 6 c91 5 153 23 190 55 14 13 20 14 23 5 3 -7 20 -13 38 -13 44 0 86 36 119 102 23 46 26 64 26 155 l0 103 -40 0 c-34 0 -40 -3 -41 -22 -1 -13 -5 -3 -10 21 -24 122 -126 181 -317 181 -73 0 -94 -3 -98 -15z"></path>
        </g>
    </g>
    <g id="l4C9IdRMC2Fgbmq0ZAfFgA3" fill="rgb(255,255,255)" style="transform: none;">
        <g>
            <path id="pHkuxXxXL" d="M5105 1280 c-167 -17 -293 -93 -352 -210 -43 -85 -46 -180 -9 -263 26 -60 108 -139 194 -188 28 -17 52 -33 52 -37 0 -4 -12 -32 -27 -62 -14 -30 -30 -63 -35 -72 -4 -10 -8 -57 -8 -106 0 -110 25 -170 98 -232 68 -59 109 -72 222 -74 80 -1 101 2 135 21 80 43 125 114 125 197 0 107 -76 197 -234 276 -27 14 -51 30 -53 35 -1 6 47 66 108 135 61 69 122 140 136 158 14 17 29 32 34 32 15 0 10 -105 -6 -143 -12 -28 -21 -36 -52 -42 -43 -8 -63 -21 -63 -41 0 -12 44 -14 246 -14 l245 0 -3 22 c-3 20 -12 24 -71 34 -37 6 -69 13 -72 16 -9 9 -25 119 -25 170 0 26 -7 69 -16 95 l-16 47 33 28 c110 92 185 124 219 93 23 -20 55 -13 46 11 -3 9 -6 21 -6 27 0 17 -41 60 -73 77 -17 8 -55 14 -96 13 -73 -1 -125 -21 -192 -74 -20 -16 -40 -29 -44 -29 -5 0 -22 10 -39 23 -92 67 -234 95 -401 77z m569 -98 c-23 -15 -60 -44 -84 -64 -36 -32 -41 -42 -36 -65 34 -144 46 -291 26 -323 -14 -23 -18 -1 -23 141 -3 83 -10 135 -19 154 l-15 28 -59 -53 c-85 -76 -265 -258 -299 -305 -17 -22 -32 -42 -36 -45 -25 -23 -119 -184 -119 -205 0 -8 -4 -15 -10 -15 -5 0 -10 6 -10 14 0 8 5 18 10 21 6 3 10 15 10 26 0 10 5 19 10 19 6 0 10 6 10 13 0 20 87 144 165 237 40 47 127 138 195 203 76 74 120 123 116 132 -3 8 0 12 8 9 12 -4 24 3 126 74 25 17 52 31 60 32 8 0 -4 -12 -26 -28z m-373 3 c48 -17 139 -75 139 -89 0 -4 -64 -72 -143 -150 -152 -149 -179 -179 -223 -245 -14 -23 -30 -41 -34 -41 -12 0 -59 58 -80 101 -28 54 -28 180 0 245 65 151 208 225 341 179z m-411 -64 c-5 -11 -14 -22 -19 -26 -6 -3 -22 -30 -36 -60 -22 -45 -27 -68 -27 -131 1 -56 -2 -74 -11 -65 -6 6 -11 44 -11 88 1 85 12 118 65 178 34 38 56 47 39 16z m388 -764 c46 -93 47 -171 3 -211 -47 -42 -150 -25 -186 31 -38 58 -16 192 48 286 l18 27 48 -45 c27 -25 58 -65 69 -88z m112 -72 c0 -8 -4 -15 -10 -15 -5 0 -10 7 -10 15 0 8 5 15 10 15 6 0 10 -7 10 -15z"></path>
            <path id="pGZJULfms" d="M7922 1258 c-11 -18 -43 -78 -72 -133 -29 -55 -69 -129 -90 -165 -21 -36 -47 -81 -58 -100 -177 -311 -222 -393 -242 -438 -16 -35 -26 -48 -31 -39 -14 23 -46 406 -55 657 l-7 165 60 13 c32 6 69 12 80 12 22 0 39 28 25 42 -5 5 -107 7 -228 6 -208 -3 -219 -4 -219 -22 0 -16 13 -22 77 -35 42 -9 79 -19 82 -22 7 -7 30 -197 46 -389 6 -74 16 -168 21 -208 5 -40 9 -149 9 -241 l0 -167 -42 -41 c-36 -34 -55 -43 -121 -58 -60 -14 -77 -22 -75 -34 3 -14 29 -16 199 -19 l196 -2 83 162 c45 90 91 175 101 190 11 14 19 28 19 31 0 2 29 54 64 115 36 61 76 131 89 154 48 84 123 214 157 271 28 47 30 45 92 -73 25 -47 62 -114 83 -150 20 -36 48 -84 62 -108 13 -23 53 -93 89 -155 71 -121 142 -261 188 -370 l29 -67 196 2 c172 3 196 5 199 19 2 14 -12 19 -85 28 -147 20 -137 12 -141 116 -7 180 37 779 69 946 l11 55 57 12 c32 7 67 12 78 12 22 0 39 28 25 42 -4 4 -145 7 -313 6 -296 -3 -304 -4 -304 -23 0 -17 9 -21 55 -27 30 -4 75 -11 100 -15 l45 -9 3 -134 c3 -131 -7 -334 -29 -550 -18 -175 -20 -179 -62 -97 -15 28 -38 70 -50 92 -13 22 -39 69 -59 105 -90 168 -221 406 -228 415 -5 6 -36 65 -70 133 -34 67 -68 122 -75 122 -7 0 -22 -15 -33 -32z m714 -105 c-3 -32 -11 -121 -16 -198 -6 -77 -15 -192 -20 -255 -5 -63 -14 -176 -20 -250 -14 -190 -21 -241 -31 -234 -12 7 -11 78 0 201 5 54 15 163 21 243 21 285 30 396 36 473 4 60 9 77 21 77 13 0 15 -10 9 -57z m-686 -12 c0 -4 -29 -58 -64 -119 -36 -61 -76 -131 -89 -154 -51 -91 -71 -126 -127 -223 -32 -55 -68 -119 -81 -142 -13 -23 -69 -120 -124 -217 -55 -96 -106 -176 -112 -176 -7 0 -13 2 -13 6 0 5 57 112 70 129 4 6 21 35 37 65 17 30 47 84 68 120 21 36 51 90 68 120 16 30 33 60 37 65 4 6 18 30 32 55 26 46 168 296 220 385 16 28 34 60 40 73 11 21 38 31 38 13z"></path>
            <path id="pt5eq0l4X" d="M94 1265 c-9 -22 4 -35 36 -35 55 0 169 -24 174 -36 3 -7 10 -106 17 -221 11 -201 7 -773 -7 -835 -5 -21 -13 -29 -38 -33 -17 -2 -66 -10 -109 -16 -62 -10 -77 -15 -75 -28 3 -14 40 -16 341 -19 298 -2 338 0 343 13 4 9 5 18 3 20 -3 2 -45 9 -94 15 -50 7 -97 15 -105 20 -25 12 -39 222 -38 575 1 365 6 454 28 466 43 21 148 34 285 34 164 0 200 -6 209 -32 3 -10 23 -61 44 -113 30 -75 43 -96 60 -98 26 -4 28 12 12 99 -5 30 -14 96 -21 147 l-12 92 -524 0 c-449 0 -524 -2 -529 -15z m316 -605 c0 -360 -3 -550 -10 -550 -7 0 -10 190 -10 550 0 360 3 550 10 550 7 0 10 -190 10 -550z"></path>
            <path id="p1nMPGeDa" d="M1508 1268 c-9 -24 4 -38 33 -38 16 0 60 -5 98 -12 56 -9 71 -16 76 -32 24 -82 30 -906 7 -1031 -8 -44 -9 -45 -145 -66 -62 -10 -77 -15 -75 -28 3 -14 51 -16 478 -16 l475 0 7 55 c3 30 8 93 9 140 3 79 2 85 -16 85 -16 0 -26 -18 -51 -95 l-32 -95 -63 -9 c-61 -8 -322 4 -334 16 -3 3 -8 16 -10 29 -8 40 -15 362 -8 392 l5 27 169 0 c127 0 171 -3 173 -12 37 -122 42 -133 61 -133 19 0 20 7 20 190 0 185 -1 190 -21 193 -17 2 -24 -6 -37 -50 -9 -29 -17 -62 -19 -73 -3 -19 -12 -20 -175 -23 l-171 -2 -7 41 c-9 52 4 431 14 442 14 15 134 27 268 27 152 0 135 11 178 -117 24 -73 31 -83 51 -83 28 0 28 -3 10 170 l-11 115 -476 3 c-376 2 -478 0 -481 -10z m312 -608 c0 -360 -3 -550 -10 -550 -7 0 -10 190 -10 550 0 360 3 550 10 550 7 0 10 -190 10 -550z"></path>
            <path id="p14M6zlqNQ" d="M2824 1265 c-10 -24 3 -32 58 -38 143 -16 146 -17 151 -51 3 -17 11 -143 18 -281 9 -193 10 -306 1 -495 -6 -135 -14 -255 -18 -267 -4 -16 -16 -24 -38 -27 -17 -3 -64 -10 -104 -17 -59 -9 -72 -14 -70 -27 3 -16 46 -17 475 -20 l472 -2 6 42 c3 24 6 88 8 143 2 84 0 100 -14 103 -18 3 -25 -12 -59 -125 l-22 -72 -72 -6 c-84 -8 -312 7 -327 22 -12 12 -25 377 -15 416 l6 27 169 0 168 0 13 -47 c21 -81 32 -104 49 -101 14 3 16 28 19 196 2 183 2 192 -17 192 -20 0 -29 -19 -52 -103 l-14 -47 -170 2 -170 3 -3 125 c-2 69 0 176 3 238 7 111 8 114 34 124 14 6 105 13 202 16 l175 5 11 -29 c22 -57 51 -139 57 -156 3 -10 15 -18 27 -18 21 0 22 1 15 128 -4 70 -9 135 -12 145 -5 16 -37 17 -480 17 -406 0 -475 -2 -480 -15z m316 -605 c0 -360 -3 -550 -10 -550 -7 0 -10 190 -10 550 0 360 3 550 10 550 7 0 10 -190 10 -550z"></path>
            <path id="pACdaZTSm" d="M9595 1268 c-129 -31 -190 -57 -280 -118 -168 -115 -265 -296 -265 -494 0 -287 200 -526 506 -607 104 -27 299 -29 406 -4 240 57 436 244 498 475 30 110 9 295 -44 390 -10 19 -26 48 -34 64 -8 16 -49 63 -91 105 -88 88 -196 149 -321 181 -83 22 -300 26 -375 8z m302 -93 c253 -75 389 -349 329 -663 -51 -270 -289 -437 -549 -388 -106 21 -160 49 -237 126 -92 91 -131 175 -149 319 -11 87 1 255 20 276 5 5 9 16 9 25 0 30 56 124 108 181 53 57 145 113 216 130 56 13 200 10 253 -6z m-673 -233 c-19 -12 -63 -144 -71 -212 -12 -92 19 -298 47 -315 6 -4 10 -15 10 -25 0 -10 4 -20 9 -22 4 -1 12 -14 16 -28 7 -22 6 -23 -9 -8 -9 9 -16 19 -16 22 0 3 -10 22 -22 43 -86 145 -90 341 -11 498 19 38 44 67 52 60 3 -4 1 -9 -5 -13z m1088 -90 c34 -133 33 -292 -3 -403 -18 -55 -49 -116 -49 -97 0 4 11 49 25 100 39 145 34 314 -11 441 -8 20 -14 43 -14 50 0 21 42 -51 52 -91z"></path>
            <path id="pUsLCfskO" d="M10594 1266 c-9 -23 4 -36 39 -37 18 0 61 -6 97 -13 l65 -12 9 -69 c11 -90 14 -846 3 -947 -9 -77 -9 -77 -40 -82 -162 -26 -178 -30 -175 -45 3 -14 40 -16 313 -19 340 -4 415 3 504 47 212 102 273 362 121 510 -22 21 -56 46 -75 55 -47 23 -50 31 -15 56 29 21 106 119 215 275 27 39 52 72 55 75 3 3 17 21 31 40 59 79 131 130 183 130 13 0 27 6 29 13 4 8 8 9 14 1 4 -6 31 -14 58 -17 28 -4 71 -9 97 -13 l47 -6 6 -52 c30 -245 25 -1009 -7 -1041 -3 -3 -49 -12 -103 -20 -54 -8 -100 -17 -103 -20 -2 -2 -2 -11 1 -20 6 -13 62 -15 476 -15 l470 0 6 42 c4 24 7 88 8 143 2 84 0 100 -14 103 -18 3 -24 -11 -58 -125 l-22 -71 -72 -7 c-82 -8 -313 7 -327 21 -11 11 -26 380 -16 417 l6 27 169 0 168 0 22 -75 c17 -61 25 -75 41 -75 19 0 20 7 20 195 0 184 -1 195 -19 195 -20 0 -30 -20 -52 -103 l-14 -47 -170 2 -170 3 -3 85 c-2 47 0 154 3 238 l7 153 27 11 c14 6 105 13 202 16 l176 5 21 -54 c11 -30 27 -74 35 -99 11 -33 21 -46 37 -48 l23 -4 -7 132 c-4 73 -10 138 -13 146 -4 12 -95 14 -580 14 -575 -1 -642 -4 -706 -37 -39 -20 -137 -118 -177 -178 -40 -59 -169 -231 -196 -261 -11 -12 -37 -33 -58 -48 -33 -22 -50 -26 -107 -26 l-69 0 0 171 c0 93 5 201 11 238 l11 67 92 13 c50 7 98 13 106 14 8 1 15 11 15 22 0 20 -8 20 -333 23 -285 2 -333 0 -338 -12z m311 -606 c0 -426 -3 -544 -12 -547 -10 -4 -13 110 -13 547 0 437 3 551 13 548 9 -4 12 -122 12 -548z m1375 0 c0 -360 -3 -550 -10 -550 -7 0 -10 190 -10 550 0 360 3 550 10 550 7 0 10 -190 10 -550z m-640 511 c0 -5 -6 -16 -13 -23 -14 -14 -138 -181 -178 -238 -48 -70 -108 -140 -121 -140 -5 0 11 28 37 63 25 34 75 103 110 153 59 83 151 194 161 194 2 0 4 -4 4 -9z m-422 -535 c100 -27 154 -82 172 -174 18 -96 -11 -184 -82 -254 -51 -50 -114 -77 -194 -85 -61 -6 -61 -6 -68 23 -10 37 -20 469 -12 489 7 20 111 20 184 1z m262 -239 c0 -80 -27 -152 -75 -197 -26 -25 -36 -12 -10 14 8 8 15 19 15 25 0 6 4 11 8 11 15 0 42 106 42 163 0 32 5 57 10 57 6 0 10 -31 10 -73z"></path>
        </g>
    </g>
</svg>