<?xml version="1.0" encoding="UTF-8"?>
<svg id="uuid-146c0b1d-aba3-4649-bc47-ef500d10e242" style="width: 32px"
    xmlns="http://www.w3.org/2000/svg" viewBox="0 0 24 24">
    <path d="M11.25,0c.5,0,1,0,1.5,0,.15,.02,.31,.04,.46,.06,2.37,.26,4.5,1.12,6.35,2.63,2.3,1.89,3.73,4.3,4.26,7.24,.08,.44,.12,.88,.18,1.32v1.5c-.01,.07-.03,.14-.04,.2-.07,.49-.11,.99-.21,1.48-1.3,6.17-7.09,10.29-13.33,9.46-3.2-.43-5.83-1.94-7.83-4.47C.5,16.78-.32,13.75,.11,10.4,.45,7.74,1.61,5.45,3.5,3.54,5.3,1.74,7.45,.61,9.96,.18,10.39,.11,10.82,.06,11.25,0Zm11.25,11.99c0-5.79-4.71-10.49-10.5-10.49-5.79,0-10.51,4.73-10.5,10.51,.01,5.79,4.72,10.49,10.5,10.49,5.79,0,10.51-4.72,10.5-10.51Z"/>
    <path d="M9.74,14.75c.11-.13,.16-.21,.23-.28,2.22-2.22,4.44-4.44,6.67-6.66,.14-.14,.33-.25,.51-.29,.31-.07,.57,.07,.74,.34,.17,.26,.15,.59-.04,.84-.05,.07-.11,.13-.17,.19-2.43,2.43-4.86,4.86-7.29,7.29-.44,.44-.83,.44-1.27,0-.96-.96-1.91-1.91-2.87-2.87-.44-.44-.26-1.13,.32-1.28,.3-.08,.55,.03,.76,.25,.74,.74,1.48,1.48,2.22,2.22,.06,.06,.1,.14,.19,.25Z"/>
</svg>