<?xml version="1.0" encoding="UTF-8"?><svg id="uuid-4bcbd211-67c1-4eb0-8ff7-b64bcb5ea619" xmlns="http://www.w3.org/2000/svg" viewBox="0 0 125 29.73"><g id="uuid-1feed04e-6a07-4cb7-aec5-51e4c926f16c"><g id="uuid-ccd36eb8-a2fc-4520-90e3-6a0e069d883c"><path d="M12.11,1.1v2.92h-3.4V20.81h3.85c2.72,0,3.3-.69,4.78-6.43h2.72v9.36H0v-2.99H3.1V4.09H0V1.1H12.11Z"/><path d="M27.65,14.18h6.02c-.16-3.27-1.06-4.58-2.92-4.58s-2.89,1.13-3.1,4.58m-.03,2.15c.21,3.75,1.72,4.99,4.27,4.99,1.92,0,3.13-.79,3.85-2.82h2.7c-.62,3.38-2.89,5.57-7.4,5.57-5.37,0-8.63-3.3-8.63-8.26s3.61-8.57,8.46-8.57c5.44,0,8,3.85,7.74,9.08h-10.99Z"/><path d="M50.31,12.52c0-2.15-.76-3.41-2.34-3.41s-2.2,1.1-2.2,3.41,.79,3.38,2.37,3.38,2.17-1.07,2.17-3.38m2.44,12.73c0-.86-.72-1.41-2.72-1.41h-4.13c-1.89,0-2.79,.72-2.79,1.69,0,1.03,1.1,1.89,4.75,1.89,3.44,0,4.89-.89,4.89-2.15m-4.54-7.65c-.69,0-1.58-.07-2.2-.07-1,0-1.65,.52-1.65,1.13,0,.72,.65,1.14,2.46,1.14h4.44c4.23,0,5.95,1.75,5.95,4.31,0,3.23-2.92,5.61-9.91,5.61-5.23,0-7.57-1.38-7.57-3.51,0-1.62,1.38-2.77,3.82-3.08v-.17c-1.96-.41-2.92-1.65-2.92-2.96,0-1.62,1.62-3.1,4.03-3.38-2.3-.58-3.71-1.96-3.71-4.27,0-2.92,2.55-5.13,7.02-5.13,.99-.02,1.97,.1,2.93,.34,.79-2.24,2.44-3.65,4.61-3.65,2.03,0,2.92,1.2,2.92,2.44,.06,1.13-.82,2.09-1.95,2.15-.07,0-.13,0-.2,0-1.21,0-1.96-.79-1.96-1.82,0-.14,.03-.31,.03-.45-.69,.07-1.37,.69-1.85,1.93,1.72,.86,2.68,2.31,2.68,4.23,0,3.34-2.48,5.2-6.95,5.2"/><path d="M63.35,14.18h6.03c-.17-3.27-1.07-4.58-2.92-4.58s-2.89,1.13-3.1,4.58m-.03,2.15c.21,3.75,1.72,4.99,4.27,4.99,1.93,0,3.13-.79,3.85-2.82h2.67c-.62,3.38-2.89,5.57-7.4,5.57-5.37,0-8.63-3.3-8.63-8.26s3.61-8.57,8.46-8.57c5.44,0,8,3.85,7.74,9.08h-10.96Z"/><path d="M76.03,20.89h2.38V10.5h-2.37v-2.86h7.08v4.23c1.13-2.72,2.89-4.58,5.84-4.58,3.47,0,4.92,2.34,4.92,5.68v7.92h2.3v2.85h-9.18v-2.85h1.82v-7.23c0-1.07-.21-1.93-.72-2.44-.44-.38-1-.58-1.58-.55-1.61,0-3.1,1.61-3.1,3.92v6.3h1.79v2.85h-9.19v-2.85Z"/><path d="M109.26,15.68c0-3.03-.97-5.4-3.27-5.4-2.1,0-3.08,1.93-3.08,5.51s1.03,5.33,3.08,5.33,3.27-2.27,3.27-5.44m-9.53,6.71c-1.48-1.48-2.2-3.89-2.2-6.64,0-2.89,.86-5.33,2.34-6.77,1.11-1.13,2.64-1.76,4.23-1.72,2.31,0,3.86,1.13,4.85,2.77V2.92h-2.48V0h7.5V20.88h2.3v2.86h-7.01v-3.38c-.97,2.24-2.75,3.71-5.37,3.71-1.56,.03-3.06-.58-4.16-1.69"/><path d="M118.85,21.3c-.03-1.7,1.33-3.1,3.03-3.12,1.7-.03,3.1,1.33,3.12,3.03,.03,1.7-1.33,3.1-3.03,3.12-.02,0-.03,0-.05,0-1.68,.02-3.05-1.32-3.07-2.99,0-.01,0-.02,0-.03"/></g></g></svg>