<?xml version="1.0" encoding="UTF-8"?>
<svg id="uuid-0709c0a7-f236-4cb8-af38-a93d661d2819" style="width: 36px"
    xmlns="http://www.w3.org/2000/svg" viewBox="0 0 24 16.26">
    <path d="M0,1.6c.03-.1,.06-.19,.09-.29C.33,.55,1.03,.02,1.83,0c.83,0,1.66,0,2.48,0,.31,0,.51,.19,.52,.46,0,.28-.21,.48-.52,.48-.81,0-1.62,0-2.48,0,.06,.08,.1,.13,.15,.17,2.86,2.86,5.71,5.73,8.57,8.59,.83,.83,2.05,.85,2.87,.04,2.14-2.13,4.27-4.27,6.4-6.41,.03-.03,.06-.06,.12-.13-.13,0-.21,0-.29,0-1.59,0-3.19,0-4.78,0-.41,0-.66-.32-.51-.65,.09-.21,.27-.29,.49-.29,.63,0,1.27,0,1.9,0,1.31,0,2.62,0,3.94,0,.15,0,.26-.04,.37-.15,.37-.38,.74-.75,1.16-1.17h-.34c-4.37,0-8.75,0-13.12,0-.09,0-.17,0-.26,0-.25-.03-.43-.24-.42-.48,.01-.23,.19-.42,.43-.45,.07,0,.14,0,.21,0,4.43,0,8.86,0,13.29,0,1.21,0,2,.79,2,1.99,0,4.09,0,8.17,0,12.26,0,1.21-.79,2-2,2-6.65,0-13.3,0-19.94,0-1.1,0-1.75-.49-2.03-1.56,0-.01-.02-.02-.03-.04C0,10.31,0,5.95,0,1.6Zm8.26,7.14c-2.19,2.19-4.36,4.37-6.53,6.54H22.3c-2.19-2.19-4.36-4.37-6.55-6.56-.51,.51-1.04,1.04-1.57,1.57-1.3,1.3-3.07,1.3-4.37,0-.53-.53-1.06-1.06-1.56-1.56ZM.97,14.52c2.16-2.17,4.34-4.35,6.48-6.49C5.32,5.89,3.16,3.73,1.01,1.57c-.08,.19-.12,12.69-.04,12.95ZM22.99,1.55c-2.17,2.17-4.33,4.34-6.47,6.49,2.14,2.18,4.29,4.38,6.45,6.58,.15-.41,.11-12.84,.03-13.07Z"/>
    <path d="M13.27,2.73c0,.26-.2,.46-.46,.46-.26,0-.48-.22-.48-.47,0-.25,.21-.46,.47-.46,.27,0,.47,.2,.47,.47Z"/>
    <path d="M6.91,.47c0,.27-.21,.48-.47,.48-.25,0-.46-.21-.46-.46,0-.26,.21-.48,.48-.47,.26,0,.46,.21,.46,.46Z"/>
</svg>