<?xml version="1.0" encoding="UTF-8"?>
<svg id="uuid-d841d1b8-8929-4fb6-82d1-8140b922302c"
    xmlns="http://www.w3.org/2000/svg" viewBox="0 0 17.81 24" style="width: 35px">
    <path d="M1.73,24s-.06-.04-.09-.07c-.19-.13-.27-.3-.22-.52,.05-.21,.23-.35,.47-.35,.6,0,1.2,0,1.8,0,1.34,0,2.67,0,4.01,0h.29c-.11-.16-.2-.29-.29-.41-2.04-2.89-4.08-5.78-6.12-8.66C-1,10.32-.36,5.14,3.04,2.21,4.51,.95,6.2,.21,8.14,.04c.05,0,.1-.02,.16-.04,.41,0,.81,0,1.22,0,.47,.08,.94,.13,1.4,.24,3.44,.76,6.18,3.66,6.76,7.14,.41,2.47-.12,4.73-1.57,6.77-.47,.66-.93,1.31-1.39,1.97-.12,.17-.29,.27-.5,.22-.2-.05-.35-.18-.35-.38,0-.14,.06-.31,.14-.43,.44-.65,.9-1.29,1.36-1.93,3.33-4.64,.92-11.1-4.63-12.44C6.33,.09,1.83,3.04,1.07,7.47c-.39,2.24,.09,4.29,1.4,6.15,2.09,2.94,4.16,5.89,6.24,8.84,.05,.08,.11,.15,.18,.26,.06-.08,.11-.14,.16-.21,.77-1.1,1.55-2.19,2.32-3.29,.05-.07,.1-.14,.16-.21,.16-.17,.4-.19,.6-.06,.19,.13,.26,.37,.16,.58-.04,.08-.09,.15-.14,.22-.72,1.03-1.45,2.05-2.17,3.08-.05,.07-.09,.14-.16,.25h.28c1.92,0,3.84,0,5.77,0,.28,0,.46,.12,.52,.35,.06,.21-.03,.4-.26,.54-.02,.01-.03,.03-.05,.04H1.73Z"/>
    <path d="M13.12,8.91c0,2.32-1.9,4.21-4.23,4.21-2.32,0-4.21-1.9-4.21-4.23,0-2.32,1.9-4.21,4.23-4.21,2.32,0,4.21,1.9,4.21,4.23Zm-4.21-3.29c-1.81,0-3.29,1.46-3.29,3.27,0,1.81,1.46,3.29,3.26,3.3,1.82,0,3.3-1.46,3.3-3.28,0-1.81-1.47-3.28-3.27-3.28Z"/>
    <path d="M13.59,17.61c0,.26-.21,.48-.47,.48-.25,0-.46-.21-.47-.46,0-.26,.21-.48,.47-.48,.25,0,.46,.21,.47,.46Z"/>
</svg>