<?xml version="1.0" encoding="UTF-8"?>
<svg id="uuid-0697ca75-f88f-4090-8cc0-75c06c03767f" style="width: 32px"
    xmlns="http://www.w3.org/2000/svg" viewBox="0 0 24 24">
    <path d="M11.25,0h1.5c.15,.02,.31,.04,.46,.06,2.37,.26,4.5,1.12,6.35,2.63,2.3,1.89,3.73,4.3,4.26,7.24,.08,.44,.12,.88,.18,1.32v1.5c-.01,.07-.03,.14-.04,.2-.07,.49-.11,.99-.21,1.48-1.3,6.17-7.09,10.29-13.33,9.46-3.2-.43-5.83-1.94-7.83-4.47C.5,16.78-.32,13.75,.11,10.4,.45,7.74,1.61,5.45,3.5,3.54,5.3,1.74,7.45,.61,9.96,.18c.43-.07,.86-.12,1.29-.18Zm11.25,11.99c0-5.79-4.71-10.49-10.5-10.49S1.49,6.23,1.5,12.01c0,5.79,4.72,10.49,10.5,10.49s10.51-4.72,10.5-10.51Z"/>
    <text transform="translate(7.63 17.19)" style="font-family:ArialMT, Arial; font-size:15.71px;">
        <tspan x="0" y="0">2</tspan>
    </text>
</svg>