<?xml version="1.0" encoding="utf-8"?>
<!-- Generator: Adobe Illustrator 26.4.0, SVG Export Plug-In . SVG Version: 6.00 Build 0)  -->
<svg version="1.1" id="Layer_1"
    xmlns="http://www.w3.org/2000/svg"
    xmlns:xlink="http://www.w3.org/1999/xlink" x="0px" y="0px" viewBox="0 0 32 32" style="enable-background:new 0 0 32 32; width: 32px" xml:space="preserve">
    <polygon points="321.6,750.9 463.6,750.9 392.6,822.9 321.6,894.9 250.6,822.9 179.6,750.9 "/>
    <g>
        <path d="M0,15.7c0.3-0.8,0.9-1.1,1.7-1.1c9.6,0,19.2,0,28.8,0c0.8,0,1.3,0.3,1.5,1c0.2,0.8-0.3,1.7-1.2,1.7c-0.1,0-0.2,0-0.4,0
		c-9.6,0-19.1,0-28.7,0c-0.8,0-1.4-0.3-1.7-1.1C0,16.1,0,15.9,0,15.7z"/>
        <path d="M0,5.5C0.2,5.2,0.3,5,0.5,4.8C0.7,4.6,1,4.5,1.2,4.5c0.1,0,0.2,0,0.3,0c9.6,0,19.2,0,28.9,0c0.2,0,0.5,0,0.7,0.1
		c0.6,0.2,1,0.8,0.9,1.4c-0.1,0.6-0.6,1.1-1.2,1.2c-0.1,0-0.3,0-0.4,0c-9.5,0-19.1,0-28.6,0c-0.8,0-1.4-0.2-1.7-1C0,5.9,0,5.7,0,5.5
		z"/>
        <path d="M0,26c0.3-0.8,0.8-1.1,1.6-1.1c9.6,0,19.3,0,28.9,0c0.7,0,1.2,0.3,1.4,1c0.2,0.8-0.3,1.6-1.1,1.7c-0.2,0-0.4,0-0.5,0
		c-9.5,0-19.1,0-28.6,0c-0.8,0-1.4-0.2-1.7-1C0,26.3,0,26.1,0,26z"/>
    </g>
</svg>
