<?xml version="1.0" encoding="UTF-8"?><svg id="uuid-4faad884-2e0c-4f2c-a563-24df75e6a7e5" xmlns="http://www.w3.org/2000/svg" viewBox="0 0 23.96 23.96"><path d="M.94,23.96c-.06-.03-.13-.05-.19-.08-.76-.3-.99-1.24-.46-1.86,.07-.08,.14-.15,.21-.22,3.2-3.2,6.4-6.4,9.61-9.61,.07-.07,.15-.11,.22-.17,0-.03,.02-.07,.03-.1-.08-.05-.17-.08-.24-.15C6.89,8.55,3.66,5.32,.43,2.09,.07,1.73-.09,1.33,.05,.84,.29,.02,1.29-.27,1.93,.28c.08,.07,.16,.15,.23,.23,3.2,3.2,6.39,6.39,9.59,9.59,.07,.07,.12,.14,.2,.23,.09-.09,.16-.15,.22-.21C15.41,6.89,18.64,3.66,21.87,.43c.38-.38,.81-.53,1.33-.35,.41,.14,.62,.47,.76,.86v.47c-.1,.34-.33,.59-.57,.83-3.18,3.18-6.36,6.36-9.54,9.54-.06,.06-.16,.09-.24,.14l.04,.11c.07,.06,.15,.11,.22,.17,3.18,3.17,6.35,6.35,9.53,9.52,.25,.24,.47,.49,.57,.83v.47c-.15,.48-.46,.79-.94,.94h-.47c-.33-.1-.58-.32-.82-.56-3.18-3.19-6.37-6.37-9.55-9.56-.06-.06-.09-.16-.16-.28-.14,.16-.2,.23-.26,.3-3.17,3.18-6.35,6.35-9.52,9.53-.24,.25-.49,.47-.83,.57h-.47Z"/></svg>