<?xml version="1.0" encoding="UTF-8"?>
<svg id="uuid-31ed94fd-1c50-4a3d-a6e6-3fda3b48ec58" style="width: 36px"
    xmlns="http://www.w3.org/2000/svg" viewBox="0 0 23.96 23.97">
    <path d="M0,23.35c.44-.87,.88-1.75,1.33-2.62,.04-.07,.07-.14,.11-.21,.09-.18,.23-.28,.42-.28,.2,0,.35,.1,.44,.29,.28,.56,.56,1.11,.84,1.67,.03,.07,.07,.14,.12,.24,.05-.09,.08-.15,.12-.22,.28-.56,.56-1.11,.84-1.67,.1-.19,.24-.31,.46-.31,.21,0,.34,.12,.43,.31,.31,.62,.62,1.24,.95,1.9,.13-.27,.25-.5,.37-.73,.19-.38,.39-.76,.57-1.15,.1-.2,.24-.33,.47-.33,.22,0,.35,.14,.45,.32,.3,.61,.61,1.22,.94,1.88,.08-.17,.15-.29,.21-.42,.24-.49,.49-.97,.73-1.46,.09-.19,.23-.32,.45-.32,.22,0,.36,.12,.45,.31,.19,.39,.38,.78,.59,1.17,.45,.86,1.16,1.3,2.13,1.3,1.01,0,2.01,.01,3.02,0,1.09-.01,2.01-.79,2.23-1.85,.01-.05,.01-.11,.02-.17-.31-.03-.62-.05-.93-.1-.85-.13-1.6-.51-2.34-.91-3.18-1.71-5.88-4-8.19-6.77-1.41-1.69-2.64-3.51-3.64-5.48-1.08-2.12-.7-4.63,.95-6.34,.23-.24,.47-.46,.69-.7,.28-.3,.59-.57,1-.7h.51c.41,.12,.71,.4,1,.7,1.09,1.1,2.19,2.2,3.29,3.29,.67,.67,.67,1.43,0,2.09-.46,.46-.92,.91-1.37,1.37-.47,.47-.52,.86-.14,1.39,.42,.59,.87,1.16,1.31,1.73,.25,.33,.15,.75-.22,.8-.14,.02-.36-.05-.45-.16-.54-.68-1.07-1.36-1.55-2.08-.46-.7-.32-1.61,.28-2.23,.49-.5,.99-.99,1.49-1.49,.29-.29,.29-.47,0-.75-1.17-1.17-2.34-2.34-3.51-3.51-.3-.3-.48-.31-.77,0-.48,.5-1.01,.97-1.39,1.54-.99,1.46-1.11,3.04-.29,4.61,2.53,4.86,6.09,8.76,10.84,11.53,.72,.42,1.43,.87,2.25,1.06,1.65,.39,3.1,0,4.36-1.13,.34-.31,.66-.64,.98-.97,.24-.24,.24-.44,0-.68-1.2-1.19-2.4-2.39-3.6-3.58-.26-.26-.45-.25-.7,0-.48,.48-.96,.96-1.44,1.44-.74,.73-1.64,.83-2.5,.25-.44-.3-.86-.61-1.29-.93-.26-.2-.31-.47-.14-.69,.17-.23,.45-.24,.72-.04,.42,.31,.84,.62,1.27,.92,.43,.29,.86,.25,1.23-.12,.5-.49,.98-.98,1.47-1.47,.63-.63,1.41-.63,2.04,0,1.19,1.17,2.37,2.35,3.56,3.52,.67,.66,.67,1.43,.01,2.09-.25,.25-.51,.5-.76,.76-.8,.82-1.75,1.36-2.88,1.6-.16,.03-.21,.09-.23,.25-.16,1.55-1.53,2.82-3.09,2.85-1.1,.02-2.2,.04-3.3,0-1.18-.04-2.09-.62-2.69-1.64-.1-.17-.18-.34-.29-.55-.09,.17-.16,.31-.23,.45-.24,.48-.48,.96-.72,1.44-.09,.19-.24,.31-.46,.31-.21,0-.34-.12-.43-.31-.27-.55-.55-1.1-.82-1.65-.03-.07-.07-.13-.13-.23-.05,.1-.1,.17-.13,.24-.27,.54-.54,1.07-.8,1.61-.1,.2-.23,.34-.46,.34-.23,0-.36-.14-.46-.34-.3-.61-.61-1.23-.93-1.87-.3,.59-.58,1.15-.86,1.71-.12,.23-.21,.49-.53,.49-.33,0-.43-.26-.55-.5-.28-.56-.55-1.11-.85-1.71-.17,.34-.32,.63-.46,.92-.15,.3-.3,.6-.45,.9-.25,.5-.63,.53-.95,.06,0-.09,0-.19,0-.28Z"/>
    <path d="M11.97,12.91c-.26,0-.47-.23-.46-.48,0-.25,.22-.45,.47-.45,.26,0,.47,.23,.46,.48,0,.25-.22,.45-.47,.45Z"/>
</svg>