<?xml version="1.0" encoding="UTF-8"?><svg id="uuid-d5af9b8c-1cfe-40d3-8d09-44722e5f5857" xmlns="http://www.w3.org/2000/svg" viewBox="0 0 28 28"><path d="M26.74,28c-.25-.19-.53-.34-.75-.56-2.11-2.1-4.22-4.21-6.32-6.32-.07-.07-.13-.15-.21-.24-3.17,2.51-6.7,3.36-10.61,2.38-2.9-.73-5.18-2.41-6.85-4.88C-1.26,13.54-.55,6.85,4.21,2.8c4.35-3.69,10.75-3.77,15.17-.05,2.49,2.09,3.93,4.78,4.22,8.03,.28,3.23-.65,6.12-2.71,8.64,.08,.08,.14,.16,.21,.22,2.11,2.11,4.23,4.22,6.33,6.34,.22,.22,.37,.5,.56,.75v.44c-.14,.41-.41,.68-.82,.82h-.44ZM2.08,11.84c.02,5.36,4.31,9.75,9.76,9.74,5.43,0,9.75-4.36,9.74-9.75,0-5.46-4.41-9.74-9.75-9.75-5.37,0-9.75,4.38-9.75,9.75Z"/><path d="M4.21,11.5c0-1.97,.66-3.68,2.05-5.1,.4-.41,1.01-.43,1.43-.06,.43,.38,.48,1.01,.09,1.44-.62,.68-1.14,1.43-1.32,2.35-.11,.61-.12,1.24-.15,1.87-.03,.73-.72,1.23-1.39,.97-.38-.15-.6-.43-.65-.84-.03-.21-.03-.42-.05-.63Z"/></svg>