<?xml version="1.0" encoding="utf-8"?>
<!-- Generator: Adobe Illustrator 26.4.0, SVG Export Plug-In . SVG Version: 6.00 Build 0)  -->
<svg version="1.1" id="Layer_1"
    xmlns="http://www.w3.org/2000/svg"
    xmlns:xlink="http://www.w3.org/1999/xlink" x="0px" y="0px" viewBox="0 0 31 50" style="enable-background:new 0 0 31 50; width: 31px; height: 50px;" xml:space="preserve">
    <g>
        <path d="M0,46.7c0.2-0.6,0.3-1.3,0.6-1.8C3.2,38.9,5.8,33,8.5,27.1c0.6-1.4,0.6-2.8,0-4.2C5.8,16.9,3.2,11,0.5,5.1
		C0.1,4.2,0,3.3,0.2,2.4c0.6-2.3,3.5-3.2,5.5-1.7c0.9,0.6,1.7,1.3,2.5,2C15,8.9,21.7,14.9,28.4,21c0.4,0.4,0.8,0.8,1.2,1.1
		c1.7,1.7,1.7,4.1,0,5.7c-2.4,2.2-4.8,4.5-7.3,6.7c-5.1,4.6-10.3,9.1-15.4,13.7c-0.8,0.7-1.7,1.5-2.9,1.7C2,50.3,0.1,48.8,0,46.7z" />
    </g>
</svg>
