<?xml version="1.0" encoding="utf-8"?>
<!-- Generator: Adobe Illustrator 26.4.0, SVG Export Plug-In . SVG Version: 6.00 Build 0)  -->
<svg version="1.1" id="Layer_1"
    xmlns="http://www.w3.org/2000/svg"
    xmlns:xlink="http://www.w3.org/1999/xlink" x="0px" y="0px" viewBox="0 0 31 50" style="enable-background:new 0 0 31 50; width: 31px; height: 50px;" xml:space="preserve">
    <g>
        <path d="M31,46.7c-0.2-0.6-0.3-1.3-0.6-1.8c-2.6-5.9-5.3-11.9-7.9-17.8c-0.6-1.4-0.6-2.8,0-4.2c2.7-5.9,5.3-11.9,7.9-17.8
		c0.4-0.9,0.6-1.7,0.3-2.7c-0.6-2.3-3.5-3.2-5.5-1.7c-0.9,0.6-1.7,1.3-2.5,2C16,8.9,9.3,14.9,2.5,21c-0.4,0.4-0.8,0.8-1.2,1.1
		c-1.7,1.7-1.7,4.1,0,5.7c2.4,2.2,4.8,4.5,7.3,6.7c5.1,4.6,10.3,9.1,15.4,13.7c0.8,0.7,1.7,1.5,2.9,1.7C29,50.3,30.9,48.8,31,46.7z" />
    </g>
</svg>
