<?xml version="1.0" encoding="utf-8"?>
<!-- Generator: Adobe Illustrator 26.4.0, SVG Export Plug-In . SVG Version: 6.00 Build 0)  -->
<svg version="1.1" id="Layer_1"
    xmlns="http://www.w3.org/2000/svg"
    xmlns:xlink="http://www.w3.org/1999/xlink" x="0px" y="0px" viewBox="0 0 32 32" style="enable-background:new 0 0 32 32; width: 32px;" xml:space="preserve">
    <style type="text/css">
	.st0{display:none;}
	.st1{display:inline;}
    </style>
    <g>
        <path d="M32,6c-0.2,0.8-0.4,1.6-0.6,2.5c-0.4,1.8-0.8,3.6-1.3,5.3c-0.5,1.7-1.8,2.6-3.5,2.8c-3.3,0.4-6.7,0.7-10,1.1
		c-1.7,0.2-3.4,0.4-5.1,0.5c-0.4,0-0.6,0.2-0.7,0.6c-0.4,1-0.1,1.9,0.7,2.5c0.4,0.3,0.8,0.3,1.2,0.3c4.6,0,9.2,0,13.8,0
		c0.2,0,0.3,0,0.5,0c0.3,0.1,0.6,0.3,0.6,0.7c0,0.3-0.2,0.6-0.5,0.7c-0.1,0-0.3,0-0.4,0c-4.7,0-9.3,0-14,0c-2.6,0-4.3-2.5-3.2-5
		c0.2-0.5,0.2-0.9,0.1-1.4C8,12.3,6.5,7.8,5.1,3.4c-0.3-1-1-1.5-2-1.5c-0.7,0-1.4,0-2.2,0c-0.6,0-1-0.4-0.8-1
		c0.1-0.3,0.3-0.5,0.5-0.5c1.1,0,2.3-0.1,3.4,0.1C5.2,0.7,6,1.6,6.4,2.8C6.6,3.3,6.8,3.9,7,4.4C7,4.7,7.1,4.8,7.4,4.8
		c3.9,0,7.8,0.1,11.7,0.2c4,0.1,8,0.1,11.9,0.2c0.4,0,0.7,0.2,1,0.5C32,5.7,32,5.9,32,6z M7.6,6.2c0,0.1,0,0.2,0.1,0.2
		c1.1,3.3,2.2,6.7,3.3,10c0.1,0.2,0.1,0.2,0.3,0.2c1.3-0.1,2.6-0.3,3.9-0.4c3.7-0.4,7.5-0.8,11.2-1.2c1.3-0.1,2.1-0.8,2.4-2.1
		c0.4-1.5,0.8-3.1,1.1-4.6c0.1-0.6,0.3-1.2,0.4-1.8C22.7,6.5,15.2,6.4,7.6,6.2z"/>
        <path d="M10.2,31.6c-1.8,0-3.3-1.5-3.3-3.3c0-1.8,1.5-3.3,3.3-3.3c1.8,0,3.3,1.5,3.3,3.3C13.5,30.1,12,31.6,10.2,31.6z M10.2,30.1
		c1,0,1.8-0.8,1.8-1.9c0-1-0.8-1.8-1.9-1.8c-1,0-1.9,0.8-1.8,1.9C8.4,29.3,9.2,30.1,10.2,30.1z"/>
        <path d="M27.6,28.2c0,1.9-1.5,3.3-3.3,3.3c-1.8,0-3.3-1.5-3.3-3.3c0-1.8,1.5-3.3,3.3-3.3C26.2,24.9,27.7,26.4,27.6,28.2z
		 M24.3,30.1c1,0,1.9-0.8,1.9-1.8c0-1-0.8-1.9-1.8-1.9c-1,0-1.8,0.8-1.9,1.8C22.4,29.2,23.3,30.1,24.3,30.1z"/>
    </g>
    <g class="st0">
        <path class="st1" d="M14.9,32c-0.5-0.1-1-0.1-1.5-0.2c-3.7-0.5-7-2.1-9.8-4.6c-0.2-0.2-0.3-0.4-0.3-0.7c0.2-5.1,2.6-8.9,7.1-11.3
		c0.3-0.2,0.6-0.1,0.9,0.2c0.7,0.7,1.5,1.3,2.5,1.6c1.9,0.7,3.7,0.5,5.4-0.5c0.5-0.3,1-0.8,1.5-1.2c0.3-0.3,0.5-0.3,0.9-0.1
		c3.7,1.9,6,4.8,6.9,8.8c0.2,0.8,0.2,1.6,0.3,2.4c0,0.3-0.1,0.6-0.3,0.8c-2.5,2.2-5.4,3.7-8.6,4.3c-0.8,0.2-1.6,0.2-2.4,0.3
		c-0.1,0-0.2,0-0.2,0.1C16.4,32,15.6,32,14.9,32z M16.4,30.8c0.5-0.1,1.5-0.1,2.4-0.3c3.2-0.5,6-1.9,8.5-4c0.1-0.1,0.1-0.2,0.1-0.3
		c0-0.4,0-0.9-0.1-1.3c-0.7-3.7-2.6-6.4-5.8-8.3c-0.2-0.1-0.3-0.1-0.5,0.1c-0.5,0.4-1,0.8-1.5,1.1c-1.4,0.8-2.9,1.1-4.4,0.9
		c-1.6-0.2-2.9-0.9-4.1-1.9c-0.2-0.2-0.4-0.2-0.6-0.1c-3.6,2.2-5.6,5.3-5.8,9.6c0,0.1,0.1,0.3,0.2,0.4C8,29.4,11.7,30.8,16.4,30.8z" />
        <path class="st1" d="M23.3,7.3c-0.2,3.1-1.4,5.8-3.8,7.9c-1.2,1-2.5,1.5-4.1,1.3c-1.1-0.1-2.1-0.6-2.9-1.3
		c-2.1-1.8-3.3-4.1-3.7-6.9c-0.4-2.6,0.5-4.9,2.5-6.6c1.7-1.4,3.6-2,5.8-1.7c2.9,0.5,4.8,2.1,5.8,4.9C23.2,5.7,23.3,6.5,23.3,7.3z
		 M22.1,7.7c0-2.1-0.6-3.6-1.9-4.8c-1.7-1.6-3.8-2.2-6-1.5C12,2.2,10.6,3.7,10.1,6c-0.3,1.3-0.1,2.6,0.3,3.9
		c0.6,1.9,1.6,3.5,3.3,4.7c1.5,1.1,3.2,1.1,4.7,0C20.8,12.8,21.8,10.3,22.1,7.7z"/>
    </g>
</svg>
